<?xml version="1.0" standalone="no"?>
<!DOCTYPE svg PUBLIC "-//W3C//DTD SVG 1.1//EN" "http://www.w3.org/Graphics/SVG/1.1/DTD/svg11.dtd" >
<!--
2013-9-30: Created.
-->
<svg>
<metadata>
Created by iconfont
</metadata>
<defs>

<font id="iconfont" horiz-adv-x="1024" >
  <font-face
    font-family="iconfont"
    font-weight="500"
    font-stretch="normal"
    units-per-em="1024"
    ascent="896"
    descent="-128"
  />
    <missing-glyph />
    
    <glyph glyph-name="arrow-down" unicode="&#59325;" d="M910.222222 567.546311c0 8.351289-3.185778 16.702578-9.534578 23.074133-12.743111 12.743111-33.223111 12.743111-45.966222 0L512 246.624711 169.278578 590.620444c-12.743111 12.743111-33.245867 12.743111-45.966222 0a32.699733 32.699733 0 0 1 0-46.148266l365.681777-367.092622c12.6976-12.743111 33.291378-12.743111 45.966223 0l365.727288 367.092622c6.326044 6.371556 9.511822 14.700089 9.511823 23.051378H910.222222z"  horiz-adv-x="1024" />

    
    <glyph glyph-name="arrow-down-insert" unicode="&#59326;" d="M746.4 511.9c6-6 9-13.2 9-21.4s-3-15.4-9-21.4l-213-213c-6-6-13.2-9-21.4-9s-15.4 3-21.4 9l-213 213c-6 6-9 13.1-9 21.4 0 8.2 3 15.4 9 21.4s13.1 9 21.4 9h426c8.3 0.1 15.4-2.9 21.4-9z"  horiz-adv-x="1024" />

    
    <glyph glyph-name="arrow-left" unicode="&#59327;" d="M695.546311-14.222222c8.351289 0 16.702578 3.185778 23.074133 9.534578 12.743111 12.743111 12.743111 33.223111 0 45.966222L374.624711 384 718.620444 726.721422c12.743111 12.743111 12.743111 33.245867 0 45.966222a32.699733 32.699733 0 0 1-46.148266 0L305.379556 407.005867a32.426667 32.426667 0 0 1 0-45.966223l367.092622-365.727288c6.371556-6.326044 14.700089-9.511822 23.051378-9.511823V-14.222222z"  horiz-adv-x="1024" />

    
    <glyph glyph-name="arrow-left-insert" unicode="&#59328;" d="M648.9 597v-426c0-8.2-3-15.4-9-21.4s-13.2-9-21.4-9-15.4 3-21.4 9l-213 213c-6 6-9 13.1-9 21.4 0 8.2 3 15.4 9 21.4l213 213c6 6 13.1 9 21.4 9 8.2 0 15.4-3 21.4-9 6-6.1 9-13.2 9-21.4z"  horiz-adv-x="1024" />

    
    <glyph glyph-name="arrow-left-double" unicode="&#59329;" d="M590.848 31.288889c-7.122489 0-14.244978 2.730667-19.6608 8.169244L258.4576 352.893156a27.921067 27.921067 0 0 0 0 39.435377L571.1872 705.763556a27.739022 27.739022 0 0 0 39.298844 0 27.898311 27.898311 0 0 0 0-39.389867L317.44 372.622222l293.046044-293.774222a27.898311 27.898311 0 0 0-19.638044-47.559111z m177.789156 0c-7.099733 0-14.222222 2.730667-19.638045 8.169244L436.269511 352.893156a27.921067 27.921067 0 0 0 0 39.435377L748.999111 705.763556a27.739022 27.739022 0 0 0 39.298845 0 27.898311 27.898311 0 0 0 0-39.389867L495.251911 372.622222l293.046045-293.774222a27.898311 27.898311 0 0 0-19.6608-47.559111z"  horiz-adv-x="1024" />

    
    <glyph glyph-name="arrow-right" unicode="&#59330;" d="M328.453689 782.222222c-8.351289 0-16.702578-3.185778-23.074133-9.534578-12.743111-12.743111-12.743111-33.223111 0-45.966222L649.375289 384 305.379556 41.278578c-12.743111-12.743111-12.743111-33.245867 0-45.966222 12.743111-12.720356 33.405156-12.720356 46.148266 0l367.092622 365.681777c12.743111 12.6976 12.743111 33.291378 0 45.966223L351.527822 772.7104a32.585956 32.585956 0 0 1-23.051378 9.511822V782.222222z"  horiz-adv-x="1024" />

    
    <glyph glyph-name="arrow-right-insert" unicode="&#59331;" d="M648.9 384c0-8.2-3-15.4-9-21.4l-213-213c-6-6-13.2-9-21.4-9s-15.4 3-21.4 9-9 13.2-9 21.4V597c0 8.2 3 15.4 9 21.4s13.1 9 21.4 9c8.2 0 15.4-3 21.4-9l213-213c6-6.1 9-13.2 9-21.4z"  horiz-adv-x="1024" />

    
    <glyph glyph-name="arrow-top-insert" unicode="&#59332;" d="M755.4 277.5c0-8.2-3-15.4-9-21.4s-13.2-9-21.4-9H299c-8.2 0-15.4 3-21.4 9s-9 13.2-9 21.4 3 15.4 9 21.4l213 213c6 6 13.1 9 21.4 9 8.2 0 15.4-3 21.4-9l213-213c6-6 9-13.2 9-21.4z"  horiz-adv-x="1024" />

    
    <glyph glyph-name="arrow-right-double" unicode="&#59333;" d="M455.907556 713.955556c7.122489 0 14.244978-2.730667 19.6608-8.169245l312.7296-313.435022c10.8544-10.922667 10.8544-28.512711 0-39.435378L475.568356 39.480889a27.739022 27.739022 0 0 0-39.298845 0 27.898311 27.898311 0 0 0 0 39.389867L729.315556 372.622222 436.269511 666.396444A27.898311 27.898311 0 0 0 455.907556 713.955556z m-177.789156 0c7.099733 0 14.222222-2.730667 19.638044-8.169245l312.7296-313.435022c10.877156-10.922667 10.877156-28.512711 0-39.435378L297.756444 39.480889a27.739022 27.739022 0 0 0-39.298844 0 27.898311 27.898311 0 0 0 0 39.389867L551.503644 372.622222 258.4576 666.396444A27.898311 27.898311 0 0 0 278.1184 713.955556z"  horiz-adv-x="1024" />

    
    <glyph glyph-name="avatar" unicode="&#59334;" d="M762.368 647.68c0-136.448-113.28-247.04-252.928-247.04-139.712 0-252.992 110.592-252.992 247.04 0 136.448 113.28 247.04 252.992 247.04s252.928-110.592 252.928-247.04zM402.56 318.72h218.112c186.688 0 338.048-154.88 338.048-345.92v-22.272c0-75.264-151.36-78.144-338.048-78.144H402.56c-186.752 0-338.112 0.064-338.112 78.08v22.4c0 190.976 151.36 345.856 338.112 345.856z"  horiz-adv-x="1024" />

    
    <glyph glyph-name="arrow-top" unicode="&#59335;" d="M113.777778 200.453689c0-8.351289 3.185778-16.702578 9.534578-23.074133 12.743111-12.743111 33.223111-12.743111 45.966222 0L512 521.375289 854.721422 177.379556c12.743111-12.743111 33.245867-12.743111 45.966222 0a32.699733 32.699733 0 0 1 0 46.148266L535.005867 590.620444a32.426667 32.426667 0 0 1-45.966223 0L123.2896 223.527822c-6.326044-6.371556-9.511822-14.700089-9.511822-23.051378H113.777778z"  horiz-adv-x="1024" />

    
    <glyph glyph-name="check" unicode="&#59336;" d="M328 96.3c-1.8 0-3.5 0.1-5.3 0.4-12.4 1.7-23.2 9-29.4 19.8L134 395.2c-11 19.2-4.3 43.6 14.9 54.6s43.6 4.3 54.6-14.9l133.2-233.2 491 492.5c15.6 15.6 40.9 15.7 56.6 0.1 15.6-15.6 15.7-40.9 0.1-56.6L358.2 109.9l-1.9-1.9c-7.6-7.6-17.8-11.7-28.3-11.7z"  horiz-adv-x="1024" />

    
    <glyph glyph-name="close" unicode="&#59337;" d="M567.7 381.1l254.8 254.6c15.4 15.4 15.4 40.3 0 55.6-15.4 15.4-40.3 15.4-55.6 0L512 436.8 257.1 691.4c-15.4 15.4-40.3 15.4-55.6 0-15.4-15.4-15.4-40.3 0-55.6l254.8-254.6-254.8-254.7c-15.4-15.4-15.4-40.3 0-55.6 7.7-7.7 17.8-11.5 27.8-11.5 10.1 0 20.1 3.8 27.8 11.5L512 325.5l254.9-254.7c7.7-7.7 17.7-11.5 27.8-11.5 10.1 0 20.1 3.8 27.8 11.5 15.4 15.4 15.4 40.3 0 55.6L567.7 381.1z"  horiz-adv-x="1024" />

    
    <glyph glyph-name="calendar" unicode="&#59338;" d="M663.936 292.096h96.128v-96.128h-96.128v96.128z m-200 0H560v-96.128h-96.064v96.128z m0 139.968H560V336h-96.064v96.064z m200 0h96.128V336h-96.128v96.064z m208 320H800v51.84a28.16 28.16 0 0 1-56.128 0v-51.84H280.064v51.84a28.16 28.16 0 0 1-56.064 0v-51.84h-71.936C103.488 752 64 712.448 64 663.872V24c0-48.512 39.488-88 88.064-88h719.872C920.512-64 960-24.512 960 24.064V663.936C960 712.512 920.512 752 871.936 752zM252.032 615.808a28.16 28.16 0 0 1 28.032 28.16v51.84h463.808v-51.84a28.096 28.096 0 0 1 56.128 0v51.84h71.936a32 32 0 0 0 31.936-31.936V552H120.128V663.936a32 32 0 0 0 31.936 32H224v-51.968c0-15.488 12.544-28.096 28.032-28.096zM903.872 24a32 32 0 0 0-31.936-31.936H152.064a32 32 0 0 0-32 31.936V495.936h783.808v-471.872zM463.936 152H560v-96.064h-96.064v96.128z m-200 140.16h96.128v-96.128h-96.128v96.064z m0-139.968h96.128v-96.128h-96.128v96.128z m0 279.936h96.128V336h-96.128v96.064z"  horiz-adv-x="1024" />

    
    <glyph glyph-name="error-fill" unicode="&#59339;" d="M512 896C229.2 896 0 666.8 0 384s229.2-512 512-512 512 229.2 512 512S794.8 896 512 896z m205.3-666.9c14-14.1 14-36.9-0.1-50.9-7-7-16.2-10.5-25.4-10.5s-18.5 3.5-25.5 10.6L512 333 357.7 178.3c-7-7.1-16.3-10.6-25.5-10.6s-18.4 3.5-25.4 10.5c-14.1 14-14.1 36.8-0.1 50.9L461.2 384 306.7 538.9c-14 14.1-14 36.9 0.1 50.9s36.9 14 50.9-0.1L512 435l154.3 154.8c14 14.1 36.8 14.1 50.9 0.1 14.1-14 14.1-36.8 0.1-50.9L562.8 384l154.5-154.9z"  horiz-adv-x="1024" />

    
    <glyph glyph-name="account" unicode="&#59340;" d="M348.328 322.525c-27.057 47.446-39.205 95.198-46.236 123.205-7.027 28.007-12.354 120.15 0 154.26 16.324 45.065 52.017 90.97 66.485 90.97 0.458 0 0.895-0.045 1.31-0.138 25.354-5.724 27.772-66.606 85.05-106.01 51.142-35.183 147.337-38.44 186.922-51.69 25.745-8.618 48.888-40.683 52.938-62.908 6.672-36.563-2.491-70.761-18.893-98.605-2.86-4.856-5.945-9.6-9.175-14.209-17.019-24.28-11.937-37.397 0.3-37.397 6.138 0 14.074 3.3 21.925 10.14 29.37 25.596 54.037 56.133 72.606 90.25 24.542 45.088 38.428 87.27 38.428 123.6 0 179.31-102.429 319.985-287.986 319.985S224.014 723.302 224.014 543.993c0-53.633 26.225-118.777 45.998-152.99 19.764-34.215 56.567-68.478 78.316-68.478zM512 799.98c165.148 0 223.99-132.236 223.99-255.987 0-2.89-0.16-6.17-0.551-9.854-17.363 26.175-43.092 49.568-73.266 59.67-17.816 5.962-39.166 9.6-63.89 13.809-35.663 6.074-84.504 14.394-107.074 29.918-18.92 13.017-28.073 30.852-37.764 49.734-12.315 24.007-29.19 56.884-69.46 65.976l-8.27 1.71h-3.171C406.68 782.775 452.417 799.98 512 799.98zM839.672 156.95L688.96 251.147c-13.562 8.484-31.341 5.594-41.56-6.655l-86.247-103.51a66.013 66.013 0 0 0-8.155-8.172c-27.186-22.624-67.59-18.906-90.153 8.188L376.6 244.493c-10.25 12.265-27.998 15.171-41.56 6.655L184.327 156.95C108.988 109.857 64.021 28.705 64.021-60.134v-3.844c0-17.671 14.312-31.999 31.999-31.999s31.999 14.328 31.999 32v3.843c0 66.637 33.748 127.493 90.245 162.805l127.025 79.402 68.372-82.043c45.155-54.2 126.026-61.559 180.366-16.343a130.005 130.005 0 0 1 16.312 16.343l68.372 82.043 127.025-79.402c56.498-35.312 90.245-96.168 90.245-162.805v-3.844c0-17.671 14.312-31.999 32-31.999s31.998 14.328 31.998 32v3.843c-0.001 88.839-44.967 169.991-120.307 217.083z"  horiz-adv-x="1024" />

    
    <glyph glyph-name="filter" unicode="&#59341;" d="M608.256-64c-17.696 0-32 14.304-32 32V448a31.912 31.912 0 0 0 8.256 21.44l208.8 234.496h-562.88L439.648 469.28a32.03 32.03 0 0 0 8.096-21.312V159.2l50.848-41.152c13.76-11.136 15.872-31.264 4.736-44.992s-31.264-15.84-44.992-4.736l-62.72 50.752c-7.52 6.048-11.872 15.232-11.872 24.864V435.808L135.136 714.656c-8.384 9.408-10.464 22.88-5.312 34.4 5.152 11.488 16.608 18.912 29.216 18.912h706.336c12.672 0 24.128-7.456 29.248-19.008s2.976-25.056-5.504-34.432L640.256 435.712V-32c0-17.696-14.304-32-32-32z"  horiz-adv-x="1024" />

    
    <glyph glyph-name="eye-close" unicode="&#59342;" d="M257.28 201.702C142.643 261.99 54.349 341.94 51.2 371.635c0 101.683 257.46 268.34 460.8 268.34 50.662 0 102.758-12.007 152.909-30.695l39.398 39.398C640.998 674.637 574.746 691.2 512 691.2 300.237 691.2 0 519.22 0 371.174c0-53.222 96.845-141.21 219.597-207.206l37.683 37.734z m543.872 399.002l-37.811-37.76c116.454-65.869 205.158-155.29 209.305-190.106C954.956 320.051 700.006 128 512 128c-50.483 0-103.142 11.494-154.163 29.389l-39.168-39.143C384.077 92.954 451.43 76.8 512 76.8c205.67 0 512 215.45 512 294.374 0 55.578-96.46 155.981-222.848 229.53zM393.062 337.51A126.208 126.208 0 0 0 384 383.974c0 70.554 57.446 128 128 128 16.46 0 32.051-3.379 46.515-9.062l38.759 38.733A179.2 179.2 0 0 1 332.8 383.975c0-30.874 7.808-59.905 21.504-85.274l38.758 38.81z m237.876 92.98A127.232 127.232 0 0 0 640 383.974c0-70.553-57.446-128-128-128a126.72 126.72 0 0 0-46.515 9.088l-38.784-38.81a179.2 179.2 0 0 1 242.944 242.945l-38.707-38.707zM102.4-51.2a25.574 25.574 0 0 0-18.1 43.7L903.5 811.7a25.574 25.574 0 1 0 36.2-36.2L120.5-43.7a25.574 25.574 0 0 0-18.1-7.5z"  horiz-adv-x="1024" />

    
    <glyph glyph-name="error" unicode="&#59343;" d="M717.2 589.8c-14.1 14-36.9 14-50.9-0.1L512 435 357.7 589.7c-14 14.1-36.8 14.1-50.9 0.1-14.1-14-14.1-36.8-0.1-50.9L461.2 384 306.7 229.1c-14-14.1-14-36.9 0.1-50.9 7-7 16.2-10.5 25.4-10.5s18.5 3.5 25.5 10.6L512 333l154.3-154.8c7-7.1 16.3-10.6 25.5-10.6s18.4 3.5 25.4 10.5c14.1 14 14.1 36.8 0.1 50.9L562.8 384l154.4 154.9c14.1 14.1 14.1 36.9 0 50.9zM512 896C229.2 896 0 666.8 0 384s229.2-512 512-512 512 229.2 512 512S794.8 896 512 896z m311.1-823.1c-40.4-40.4-87.5-72.2-139.9-94.3C629-44.4 571.4-56 512-56c-59.4 0-117 11.6-171.2 34.5-52.4 22.2-99.4 53.9-139.9 94.3-40.4 40.4-72.2 87.5-94.3 139.9C83.6 267 72 324.6 72 384c0 59.4 11.6 117 34.5 171.2 22.2 52.4 53.9 99.4 94.3 139.9 40.4 40.4 87.5 72.2 139.9 94.3C395 812.4 452.6 824 512 824c59.4 0 117-11.6 171.2-34.5 52.4-22.2 99.4-53.9 139.9-94.3 40.4-40.4 72.2-87.5 94.3-139.9C940.4 501 952 443.4 952 384c0-59.4-11.6-117-34.5-171.2-22.2-52.4-53.9-99.5-94.4-139.9z"  horiz-adv-x="1024" />

    
    <glyph glyph-name="info" unicode="&#59344;" d="M512 896C229.2 896 0 666.8 0 384s229.2-512 512-512 512 229.2 512 512S794.8 896 512 896z m311.1-823.1c-40.4-40.4-87.5-72.2-139.9-94.3C629-44.4 571.4-56 512-56c-59.4 0-117 11.6-171.2 34.5-52.4 22.2-99.4 53.9-139.9 94.3-40.4 40.4-72.2 87.5-94.3 139.9C83.6 267 72 324.6 72 384c0 59.4 11.6 117 34.5 171.2 22.2 52.4 53.9 99.4 94.3 139.9 40.4 40.4 87.5 72.2 139.9 94.3C395 812.4 452.6 824 512 824c59.4 0 117-11.6 171.2-34.5 52.4-22.2 99.4-53.9 139.9-94.3 40.4-40.4 72.2-87.5 94.3-139.9C940.4 501 952 443.4 952 384c0-59.4-11.6-117-34.5-171.2-22.2-52.4-53.9-99.5-94.4-139.9zM630.2 190.4H545V540.5c0 19.9-16.1 36-36 36h-96c-19.9 0-36-16.1-36-36s16.1-36 36-36h60v-314.1h-85.2c-19.9 0-36-16.1-36-36s16.1-36 36-36h242.4c19.9 0 36 16.1 36 36s-16.1 36-36 36zM473 675.5a36 36 0 1 1 72 0 36 36 0 1 1-72 0z"  horiz-adv-x="1024" />

    
    <glyph glyph-name="eye" unicode="&#59345;" d="M583.68 660.48c215.04 0 419.84-158.72 419.84-256s-204.8-256-419.84-256-419.84 158.72-419.84 256 204.8 256 419.84 256m0 56.32c-256 0-481.28-179.2-481.28-317.44s225.28-312.32 481.28-312.32 481.28 174.08 481.28 312.32c0 138.24-225.28 317.44-481.28 317.44M573.44 512C640 512 691.2 460.8 691.2 399.36S640 286.72 578.56 286.72h-10.24c-61.44 0-112.64 51.2-112.64 112.64S506.88 512 573.44 512l-5.12 5.12 5.12-5.12z m0-286.72c102.4 0 189.44 81.92 189.44 179.2s-81.92 179.2-184.32 179.2h-5.12c-102.4 0-184.32-81.92-184.32-179.2 0-102.4 81.92-179.2 184.32-179.2z"  horiz-adv-x="1126" />

    
    <glyph glyph-name="info-fill" unicode="&#59346;" d="M512 896C229.2 896 0 666.8 0 384s229.2-512 512-512 512 229.2 512 512S794.8 896 512 896z m-3-184.5c19.9 0 36-16.1 36-36s-16.1-36-36-36-36 16.1-36 36 16.1 36 36 36z m157.2-557.1c0-19.9-16.1-36-36-36H387.8c-19.9 0-36 16.1-36 36s16.1 36 36 36H473V504.5h-60c-19.9 0-36 16.1-36 36s16.1 36 36 36h96c19.9 0 36-16.1 36-36v-350.1h85.2c19.9 0 36-16.1 36-36z"  horiz-adv-x="1024" />

    
    <glyph glyph-name="omit" unicode="&#59347;" d="M76.228 374.704C34.18 374.704 0 409.028 0 451.074s34.181 76.372 76.228 76.372 76.37-34.181 76.37-76.371c0-42.047-34.323-76.371-76.37-76.371z m435.2 0c-42.047 0-76.228 34.18-76.228 76.37 0 42.048 34.181 76.372 76.228 76.372s76.228-34.181 76.228-76.371c0-42.047-34.181-76.371-76.228-76.371z m434.914 0c-42.047 0-76.228 34.18-76.228 76.37 0 42.048 34.181 76.372 76.228 76.372s76.228-34.181 76.228-76.371c0-42.047-34.181-76.371-76.228-76.371z"  horiz-adv-x="1024" />

    
    <glyph glyph-name="plus" unicode="&#59348;" d="M866.5 420H548V730.5c0 19.9-16.1 36-36 36s-36-16.1-36-36V420H164.5c-19.9 0-36-16.1-36-36s16.1-36 36-36H476v-311.5c0-19.9 16.1-36 36-36s36 16.1 36 36V348h318.5c19.9 0 36 16.1 36 36s-16.1 36-36 36z"  horiz-adv-x="1024" />

    
    <glyph glyph-name="rocket" unicode="&#59349;" d="M725.902 397.084c18.205 251.45-93.298 410.738-205.369 475.592l-6.257 3.982-6.258-3.414c-111.502-64.853-224.711-224.142-204.8-475.59-55.751-53.476-80.214-116.623-80.214-204.8v-15.36l179.2 35.27c11.378-40.39 58.596-69.973 113.21-69.973 54.613 0 101.262 29.582 112.64 68.836l180.337-36.41v15.36c-0.569 89.885-25.031 153.6-82.489 206.507zM571.733 503.467c-33.564-31.29-87.04-28.445-118.329 5.12s-28.444 87.04 5.12 117.76c33.565 31.289 87.04 28.444 118.33-5.12s28.444-86.471-5.12-117.76z m-56.32-368.64c-35.84 0-64.284-29.014-64.284-64.285 0-35.84 54.044-182.613 64.284-182.613s64.285 146.773 64.285 182.613c0 35.271-29.014 64.285-64.285 64.285z"  horiz-adv-x="1024" />

    
    <glyph glyph-name="fetching" unicode="&#59350;" d="M512-64C277.605-64 86.897 126.709 86.897 361.103S277.605 786.207 512 786.207c116.878 0 225.773-46.433 306.693-130.737 9.644-10.027 44.069-47.518 52.628-58.44 11.113-14.242 8.558-34.807-5.685-45.92-14.306-11.114-34.872-8.494-45.92 5.684-7.793 10.027-39.408 44.197-48.158 53.33-68.53 71.403-160.69 110.682-259.558 110.682-198.309 0-359.703-161.394-359.703-359.703S313.691 1.401 512 1.401s359.703 161.393 359.703 359.702c0 18.075 14.625 32.7 32.7 32.7s32.7-14.625 32.7-32.7C937.103 126.71 746.395-64 512-64z m326.684 588.604h-215.49c-18.075 0-32.7 14.626-32.7 32.7s14.625 32.701 32.7 32.701h209.294V799.3c0 18.074 14.626 32.7 32.7 32.7s32.701-14.626 32.701-32.7v-215.49c0-32.636-26.57-59.206-59.205-59.206z"  horiz-adv-x="1024" />

    
    <glyph glyph-name="password" unicode="&#59351;" d="M524.857 422.571c-64.286 0-128.571-64.285-128.571-128.571 0-36 23.143-56.571 51.428-77.143V114c0-15.429 36-25.714 51.429-25.714h51.428C566 88.286 602 98.57 602 114V216.857c28.286 20.572 51.429 38.572 51.429 77.143 0 64.286-64.286 128.571-128.572 128.571z m51.429-180C566 237.43 550.57 229.714 550.57 216.857v-77.143h-51.428v77.143c0 12.857-15.429 20.572-25.714 25.714-23.143 12.858-25.715 25.715-25.715 51.429 0 38.571 38.572 77.143 77.143 77.143S602 332.57 602 294c0-25.714-2.571-38.571-25.714-51.429z m180 308.572V602.57C753.714 759.43 656 834 499.143 834s-231.429-74.571-231.429-231.429v-51.428c-72-5.143-128.571-54-128.571-128.572v-360C139.143-14.57 190.57-66 267.714-66h488.572c77.143 0 128.571 51.429 128.571 128.571v360c0 74.572-54 126-128.571 128.572zM319.143 602.57c0 126 54 180 180 180s203.143-54 205.714-180v-51.428H319.143V602.57z m514.286-540c0-46.285-30.858-77.142-77.143-77.142H267.714c-46.285 0-77.143 30.857-77.143 77.142v360c0 46.286 30.858 77.143 77.143 77.143h488.572c46.285 0 77.143-30.857 77.143-77.143v-360z"  horiz-adv-x="1024" />

    
    <glyph glyph-name="img-figure" unicode="&#59352;" d="M1444.571429 843.619962c-13.14621 13.906895-31.997562 21.7088-51.619353 22.479238L833.145905 887.047314l-41.905981-89.331809 58.280228-166.0928-105.130666-188.572038 42.656914-152.195657L893.717943 160.377905l154.282667 134.290285c14.852876 13.136457 38.66819 12.385524 51.619352-2.291809l197.905067-202.654476c13.906895-13.916648 13.14621-36.571429-1.716419-49.717638-7.431314-6.290286-16.384-10.103467-26.282667-9.333029L727.04 50.858667l-27.053105-73.718248 29.53021-65.90659 623.811047-22.469486c40.950248-1.521371 75.424914 28.759771 76.380648 67.613257l34.659962 836.764038c0.760686 18.666057-5.90019 37.332114-19.807086 50.478324z m-400.569296-384.195048c-61.527771 2.29181-109.148648 51.23901-106.671543 108.768305 2.477105 58.280229 54.096457 103.238705 114.863543 100.946895 60.757333-2.282057 109.138895-51.23901 106.661791-108.758552-2.282057-57.519543-54.096457-103.433752-114.853791-100.956648z m-402.090666-483.035428l18.851352 77.706971-440.758857-28.769524c-20.577524-1.521371-37.72221 12.385524-39.428876 31.812267a33.9968 33.9968 0 0 0 8.952685 25.717029L516.193524 437.716114c6.475581 7.801905 16.384 11.615086 27.043352 11.615086 9.908419 0 19.62179-3.803429 27.053105-10.8544l109.138895-107.997867-46.86019 114.853791 83.811962 198.665752-76.380648 159.236876L671.236876 894.858971 70.480457 855.235048c-40.96-2.282057-71.43619-35.810743-68.949333-74.469181l60.757333-836.949334c0.760686-18.67581 9.898667-35.625448 25.521981-47.435581a73.942552 73.942552 0 0 1 53.335772-17.144685l536.761295 34.855009-36.005791 62.288457z"  horiz-adv-x="1472" />

    
    <glyph glyph-name="star" unicode="&#59353;" d="M1022.293 501.76c-5.12 15.36-17.066 25.6-32.426 27.307L686.08 573.44 549.547 848.213C542.72 861.867 529.067 870.4 512 870.4c-15.36 0-30.72-8.533-37.547-22.187L337.92 573.44 35.84 530.773c-15.36-1.706-29.013-13.653-32.427-27.306-5.12-15.36 0-30.72 10.24-42.667l220.16-215.04-51.2-302.08c-3.413-15.36 3.414-30.72 17.067-40.96 11.947-8.533 29.013-10.24 42.667-3.413L512 42.667l271.36-143.36c6.827-3.414 11.947-5.12 18.773-5.12 8.534 0 17.067 3.413 23.894 8.533 11.946 8.533 18.773 25.6 17.066 40.96l-51.2 302.08 220.16 215.04c10.24 10.24 15.36 27.307 10.24 40.96z"  horiz-adv-x="1024" />

    
    <glyph glyph-name="time" unicode="&#59354;" d="M512 896C229.2 896 0 666.8 0 384s229.2-512 512-512 512 229.2 512 512S794.8 896 512 896z m311.1-823.1c-40.4-40.4-87.5-72.2-139.9-94.3C629-44.4 571.4-56 512-56s-117 11.6-171.2 34.5c-52.4 22.2-99.4 53.9-139.9 94.3-40.4 40.4-72.2 87.5-94.3 139.9C83.6 267 72 324.6 72 384s11.6 117 34.5 171.2c22.2 52.4 53.9 99.4 94.3 139.9 40.4 40.4 87.5 72.2 139.9 94.3C395 812.4 452.6 824 512 824s117-11.6 171.2-34.5c52.4-22.2 99.4-53.9 139.9-94.3 40.4-40.4 72.2-87.5 94.3-139.9C940.4 501 952 443.4 952 384s-11.6-117-34.5-171.2c-22.2-52.4-53.9-99.5-94.4-139.9zM733 392H548V632c0 19.9-16.1 36-36 36s-36-16.1-36-36v-240c0-39.8 32.2-72 72-72h185c19.9 0 36 16.1 36 36s-16.1 36-36 36z"  horiz-adv-x="1024" />

    
    <glyph glyph-name="success-fill" unicode="&#59355;" d="M512 896C229.2 896 0 666.8 0 384s229.2-512 512-512 512 229.2 512 512S794.8 896 512 896z m260.3-356.4L412.8 178.9l-0.4-0.4c-2.4-2.6-5.3-4.9-8.5-6.7-5.6-3.2-11.8-4.7-17.8-4.7-12.5 0-24.7 6.5-31.3 18.2L245.9 375.7C236 393 242 415 259.3 424.8c17.3 9.9 39.3 3.9 49.1-13.4l85.4-149.5 327.5 328.5c14 14.1 36.8 14.1 50.9 0.1 14.1-14.1 14.1-36.9 0.1-50.9z"  horiz-adv-x="1024" />

    
    <glyph glyph-name="search" unicode="&#59356;" d="M848.9216 173.5168c121.4976 180.9408 103.5264 427.8784-56.7552 587.3152-181.1712 180.224-474.9824 180.224-656.2304 0-181.248-180.224-181.248-472.3712 0-652.5952 160.3584-159.4368 408.5248-177.2288 589.2352-54.4256 0.5376-0.64 158.464-162.816 158.464-162.816a60.2624 60.2624 0 0 1 85.8368-0.5888l35.7376 35.5072a61.7728 61.7728 0 0 1 0.768 86.6816l-157.056 160.9216z m-113.4592-8.8832c-149.8624-148.9152-392.8832-148.9152-542.8224 0-149.8624 149.0688-149.8624 390.7072 0 539.6992 149.9392 149.0688 392.96 149.0688 542.8224 0.1024 149.76-149.0944 149.76-390.7328 0-539.8016z"  horiz-adv-x="1024" />

    
    <glyph glyph-name="success" unicode="&#59357;" d="M721.3 590.4L393.8 261.9l-85.4 149.5c-9.9 17.3-31.8 23.3-49.1 13.4S236 393 245.9 375.7l108.8-190.5c6.6-11.6 18.8-18.2 31.3-18.2 6.1 0 12.2 1.5 17.8 4.7 3.2 1.9 6.1 4.1 8.5 6.7l0.4 0.4 359.5 360.6c14 14.1 14 36.9-0.1 50.9-14 14.2-36.7 14.2-50.8 0.1zM512 896C229.2 896 0 666.8 0 384s229.2-512 512-512 512 229.2 512 512S794.8 896 512 896z m311.1-823.1c-40.4-40.4-87.5-72.2-139.9-94.3C629-44.4 571.4-56 512-56c-59.4 0-117 11.6-171.2 34.5-52.4 22.2-99.4 53.9-139.9 94.3-40.4 40.4-72.2 87.5-94.3 139.9C83.6 267 72 324.6 72 384c0 59.4 11.6 117 34.5 171.2 22.2 52.4 53.9 99.4 94.3 139.9 40.4 40.4 87.5 72.2 139.9 94.3C395 812.4 452.6 824 512 824c59.4 0 117-11.6 171.2-34.5 52.4-22.2 99.4-53.9 139.9-94.3 40.4-40.4 72.2-87.5 94.3-139.9C940.4 501 952 443.4 952 384c0-59.4-11.6-117-34.5-171.2-22.2-52.4-53.9-99.5-94.4-139.9z"  horiz-adv-x="1024" />

    
    <glyph glyph-name="warning" unicode="&#59358;" d="M512 824c59.4 0 117-11.6 171.2-34.5 52.4-22.2 99.4-53.9 139.9-94.3 40.4-40.4 72.2-87.5 94.3-139.9C940.4 501 952 443.4 952 384s-11.6-117-34.5-171.2c-22.2-52.4-53.9-99.4-94.3-139.9-40.4-40.4-87.5-72.2-139.9-94.3C629-44.4 571.4-56 512-56s-117 11.6-171.2 34.5c-52.4 22.2-99.4 53.9-139.9 94.3-40.4 40.4-72.2 87.5-94.3 139.9C83.6 267 72 324.6 72 384s11.6 117 34.5 171.2c22.2 52.4 53.9 99.4 94.3 139.9 40.4 40.4 87.5 72.2 139.9 94.3C395 812.4 452.6 824 512 824m0 72C229.2 896 0 666.8 0 384s229.2-512 512-512 512 229.2 512 512S794.8 896 512 896z m0-640c-22.1 0-40 17.9-40 40V665c0 22.1 17.9 40 40 40s40-17.9 40-40v-369c0-22.1-17.9-40-40-40z m-45-109a45 45 0 1 1 90 0 45 45 0 1 1-90 0z"  horiz-adv-x="1024" />

    
    <glyph glyph-name="spin" unicode="&#59359;" d="M1021.892 417.672C1013.097 600.425 902.355 774.084 734.93 850.1 554.225 932.17 335.089 897.897 184.47 770.409 41.38 649.306-25.811 454.024 14.999 270.88c40.508-181.821 179.23-329.337 359.875-377.616 213.595-57.103 408.697 43.881 528.655 219.678-108.815-145.197-272.865-241.092-458.842-208.956-183.145 31.623-333.523 171.098-375.386 352.557-44.605 193.265 44.604 395.776 217.027 493.779C465.107 851.938 712.764 814.41 831.79 640.15a407.432 407.432 0 0 0 61.35-144.836c9.246-43.61 5.36-87.19 11.776-130.71 5.662-38.28 39.544-91.589 83.727-62.917 38.25 24.817 35.72 76.5 33.25 115.984-0.512 10.962 1.385-21.956 0 0"  horiz-adv-x="1024" />

    
    <glyph glyph-name="process" unicode="&#59360;" d="M965.427 354.164C955.039 556.394 811.004 726.53 615.45 771.55c-13.491 3.106-26.946-5.313-30.052-18.804-3.105-13.491 5.313-26.946 18.805-30.052 173.819-40.015 301.922-191.333 311.156-371.102 0.71-13.826 12.494-24.458 26.32-23.748 13.826 0.71 24.458 12.494 23.748 26.32zM386.693 765.048C195.198 709.224 61.06 533.052 61.06 330.59c0-44.105 6.318-87.392 18.627-128.886 3.937-13.272 17.888-20.84 31.16-16.902 13.273 3.937 20.84 17.888 16.903 31.16-10.94 36.878-16.557 75.363-16.557 114.628 0 180.028 119.29 336.699 289.531 386.327 13.29 3.874 20.924 17.79 17.05 31.08-3.875 13.29-17.79 20.924-31.08 17.05zM196.357 7.892c84.056-82.629 196.93-129.786 317.188-129.786 129.776 0 250.76 54.963 336.013 149.431 9.275 10.278 8.462 26.128-1.816 35.403-10.277 9.275-26.128 8.462-35.403-1.815-75.844-84.042-183.357-132.886-298.794-132.886-106.976 0-207.271 41.902-282.043 115.405-9.873 9.705-25.744 9.57-35.449-0.303-9.705-9.873-9.569-25.744 0.304-35.449zM498.28 610.824c72.859 0 131.922 59.063 131.922 131.921 0 72.858-59.063 131.922-131.922 131.922-72.858 0-131.921-59.064-131.921-131.922s59.063-131.921 131.921-131.921z m0 50.133c-45.17 0-81.788 36.618-81.788 81.788 0 45.17 36.618 81.788 81.788 81.788 45.17 0 81.788-36.617 81.788-81.788 0-45.17-36.617-81.788-81.788-81.788zM131.921-30.304c72.859 0 131.922 59.063 131.922 131.921 0 72.858-59.063 131.921-131.922 131.921C59.063 233.538 0 174.475 0 101.618c0-72.86 59.063-131.922 131.921-131.922z m0 50.133c-45.17 0-81.788 36.618-81.788 81.788 0 45.17 36.618 81.788 81.788 81.788 45.17 0 81.788-36.618 81.788-81.788 0-45.17-36.617-81.788-81.788-81.788z m763.249-19.603c72.857 0 131.92 59.063 131.92 131.921 0 72.858-59.063 131.921-131.92 131.921-72.859 0-131.922-59.063-131.922-131.921 0-72.858 59.063-131.921 131.921-131.921z m0 50.133c-45.171 0-81.789 36.618-81.789 81.788 0 45.17 36.618 81.788 81.788 81.788 45.17 0 81.788-36.618 81.788-81.788 0-45.17-36.617-81.788-81.788-81.788z"  horiz-adv-x="1028" />

    
    <glyph glyph-name="no-data" unicode="&#59361;" d="M156.661991 196.242041h21.096999a10.443999 10.443999 0 0 0 10.235999-10.443999c0-5.765-4.491-10.443999-10.235999-10.444h-21.096999v-21.097999a10.443999 10.443999 0 0 0-10.444-10.234999 10.276999 10.276999 0 0 0-10.443999 10.234999v21.097999h-21.096999a10.443999 10.443999 0 0 0-10.234999 10.444c0 5.765 4.49 10.443999 10.234999 10.443999h21.096999v21.096999a10.443999 10.443999 0 0 0 10.443999 10.234999c5.765 0 10.443999-4.49 10.444-10.234999v-21.096999z m1378.627919 83.552995v21.096999a10.276999 10.276999 0 0 1-10.443999 10.234999 10.443999 10.443999 0 0 1-10.444-10.234999v-21.096999h-21.096998a10.276999 10.276999 0 0 1-10.235-10.443999c0-5.598 4.595-10.443999 10.235-10.444h21.096998v-21.096998c0-5.745 4.679-10.235999 10.444-10.236a10.443999 10.443999 0 0 1 10.443999 10.236v21.096998h21.097999c5.744 0 10.234999 4.679 10.234999 10.444a10.443999 10.443999 0 0 1-10.234999 10.443999h-21.097999zM776.459955-64.861944H250.596985a20.804999 20.804999 0 0 0-20.825998 20.887999c0 11.529999 9.462999 20.888999 20.825998 20.888999h94.727995a83.009995 83.009995 0 0 0-11.112 41.671997v605.969965a83.489995 83.489995 0 0 0 83.636996 83.447995h62.580996v20.992999a83.489995 83.489995 0 0 0 83.636995 83.448995h501.151971a83.448995 83.448995 0 0 0 83.636995-83.448995v-605.969965c0-15.184999-4.053-29.409998-11.134-41.671997h115.553994c11.551999 0 20.909999-9.273999 20.909998-20.887999 0-11.529999-9.295999-20.887999-20.888998-20.887999h-250.659986v-20.992999c0-15.185999-4.052-29.409998-11.132999-41.671997h11.195999c11.488999 0 20.825999-9.274999 20.825999-20.888999 0-11.529999-9.462999-20.887999-20.825999-20.887999H892.807948a41.657998 41.657998 0 0 0-6.413-50.862997 41.671998 41.671998 0 0 0-59.071996 0l-50.862997 50.862997z m76.367995 41.776998h66.423996c22.977999 0 41.609998 18.589999 41.609998 41.879997V625.539016c0 22.559999-18.047999 40.689998-40.313998 40.689997H416.303976c-22.266999 0-40.314998-18.213999-40.314998-40.689997v-606.741965c0-23.123999 18.799999-41.880998 41.589998-41.880997h317.083981l-10.736999 10.756999a41.692998 41.692998 0 0 0-10.862 40.376998l-19.718999 19.739999a146.259991 146.259991 0 0 0-190.980988 220.516987 146.217991 146.217991 0 0 0 220.517987-190.980989l19.738998-19.739999a41.629998 41.629998 0 0 0 40.376998-10.839999l69.829996-69.829996z m149.809991 104.440994h62.852997a41.796998 41.796998 0 0 1 41.589997 41.776997v605.759965c0 23.144999-18.632999 41.776998-41.589997 41.776997H563.774967a41.796998 41.796998 0 0 1-41.566998-41.775997v-20.888999h396.793977a83.448995 83.448995 0 0 0 83.636995-83.448995v-543.199968zM266.326984 849.001003h31.122999c8.773999 0 15.875999-6.955 15.875999-15.665999 0-8.647999-7.102-15.665999-15.875999-15.665999h-31.122999v-31.123999c0-8.772999-6.956-15.874999-15.665999-15.874999a15.769999 15.769999 0 0 0-15.666999 15.874999V817.670005H203.869988a15.728999 15.728999 0 0 0-15.874999 15.665999c0 8.647999 7.102 15.665999 15.874999 15.665999h31.122998V880.125001C234.992986 888.898 241.949986 896 250.659985 896c8.646999 0 15.665999-7.102 15.665999-15.874999V849.000003zM20.887999-43.973945c0 11.529999 9.462999 20.888999 20.825999 20.888999h125.454992c11.488999 0 20.825999-9.274999 20.825999-20.888999 0-11.529999-9.462999-20.887999-20.825999-20.887999H41.713998a20.804999 20.804999 0 0 0-20.825999 20.887999z m658.733961 135.021992A104.441994 104.441994 0 1 1 531.899969 238.770039a104.441994 104.441994 0 0 1 147.721991-147.721992z m-220.079987 491.626971a20.887999 20.887999 0 0 0 20.867999 20.888999h229.791986a20.887999 20.887999 0 1 0 0-41.776997H480.430972a20.825999 20.825999 0 0 0-20.887999 20.887998z m0-104.440994c0 11.529999 9.295999 20.887999 20.742999 20.887999H814.789952c11.446999 0 20.741999-9.273999 20.741999-20.887999 0-11.529999-9.294999-20.887999-20.741999-20.887998H480.284972a20.762999 20.762999 0 0 0-20.741999 20.887998z m0-104.441993c0 11.529999 9.316999 20.888999 20.846999 20.888998h146.301991c11.509999 0 20.845999-9.274999 20.845999-20.888998 0-11.529999-9.315999-20.887999-20.845999-20.887999H480.388972a20.804999 20.804999 0 0 0-20.845999 20.887999zM62.665996 499.122023a62.664996 62.664996 0 1 0 0 125.329993 62.664996 62.664996 0 0 0 0-125.329993z m0 31.332998a31.331998 31.331998 0 1 1 0 62.664997 31.331998 31.331998 0 0 1 0-62.664997z m1295.074924 93.996995a62.664996 62.664996 0 1 0 0 125.329993 62.664996 62.664996 0 0 0 0-125.329993z m0 31.332998a31.331998 31.331998 0 1 1 0 62.663996 31.331998 31.331998 0 0 1 0-62.663996z"  horiz-adv-x="1566" />

    
    <glyph glyph-name="warning-fill" unicode="&#59362;" d="M512 896C229.2 896 0 666.8 0 384s229.2-512 512-512 512 229.2 512 512S794.8 896 512 896z m-40-231c0 22.1 17.9 40 40 40s40-17.9 40-40v-369c0-22.1-17.9-40-40-40s-40 17.9-40 40V665z m40-563c-24.9 0-45 20.1-45 45s20.1 45 45 45 45-20.1 45-45c0-24.8-20.1-45-45-45z"  horiz-adv-x="1024" />

    
    <glyph glyph-name="exception" unicode="&#59363;" d="M512 220.16c-25.6 0-46.08-20.48-46.08-46.08S486.4 128 512 128s46.08 20.48 46.08 46.08-20.48 46.08-46.08 46.08z m430.08-163.84c30.72 51.2 30.72 107.52 0 158.72L655.36 716.8c-30.72 51.2-81.92 81.92-138.24 81.92S409.6 768 378.88 716.8L87.04 215.04c-30.72-51.2-30.72-112.64 0-158.72 30.72-51.2 81.92-76.8 138.24-76.8h578.56c56.32-5.12 107.52 25.6 138.24 76.8z m-66.56 35.84c-15.36-25.6-46.08-46.08-76.8-46.08H220.16c-30.72 0-61.44 15.36-76.8 40.96s-15.36 61.44 0 87.04L435.2 675.84c15.36 25.6 46.08 46.08 76.8 46.08s61.44-15.36 76.8-46.08l286.72-501.76c20.48-20.48 20.48-56.32 0-81.92zM501.76 542.72c-20.48-5.12-35.84-25.6-35.84-51.2 0-15.36 0-30.72 5.12-46.08 5.12-56.32 5.12-107.52 10.24-163.84 0-20.48 15.36-30.72 35.84-30.72 20.48 0 35.84 15.36 35.84 35.84v35.84c0 35.84 5.12 71.68 5.12 107.52 0 25.6 5.12 46.08 5.12 71.68 0 10.24 0 15.36-5.12 25.6-10.24 10.24-35.84 20.48-56.32 15.36z"  horiz-adv-x="1024" />

    
    <glyph glyph-name="detail" unicode="&#59364;" d="M1024 353.882V775.53C1024 841.79 969.788 896 903.53 896H120.47C54.213 896 0 841.788 0 775.53v-783.06C0-73.787 54.212-128 120.47-128h542.118v60.235H120.471c-36.142 0-60.236 24.094-60.236 60.236V775.529c0 36.142 24.094 60.236 60.236 60.236h783.058c36.142 0 60.236-24.094 60.236-60.236v-421.647H1024zM901.963 9.336l42.647 42.587 127.699-127.699-42.526-42.647zM180.706 715.294h487.906v-60.235H180.706z m0-180.706h301.176v-60.235H180.706z m0-180.706h301.176v-60.235H180.706z m602.353-391.53c-114.447 0-210.824 96.377-210.824 210.824S668.612 384 783.06 384s210.823-96.376 210.823-210.824-96.376-210.823-210.823-210.823z m0 361.413c-84.33 0-150.588-66.26-150.588-150.589s66.258-150.588 150.588-150.588 150.588 66.26 150.588 150.588-66.259 150.589-150.588 150.589z"  horiz-adv-x="1084" />

    
    <glyph glyph-name="list" unicode="&#59365;" d="M97.923 895.802C43.373 895.802 0.51 852.345 0.51 797.1v-825.594c-0.8-53.648 41.962-97.905 95.614-98.704h829.953c54.55 0 97.412 43.458 97.412 98.704V797.099c0.8 53.647-41.962 97.904-95.614 98.703H97.923zM367.84 141.74V343.242H656.26v-201.404c0-0.1-288.419-0.1-288.419-0.1z m288.319-39.562V-97.84H367.84V102.177H656.16z m0 481.93v-200.018H367.84V584.107H656.16z m327.38 0v-200.01H697.12v200.01h286.42z m-656.659-200.01H40.461v200.01h286.42v-200.01zM54.447 343.243h269.737v-187.817H54.447V343.242z m642.673 0h286.42v-200.009H697.12V343.242zM108.108 842.47h802.79c32.155 0 56.658-24.89 56.658-57.432v-157.09H51.45v157.09c0 32.542 24.503 57.432 56.658 57.432zM57.444-36.557V96.247h269.437v-188.148h-214.84c-30.33 0.28-54.69 25.011-54.597 55.344z m852.922-54.647H697.12V95.55h267.439v-131.822c0-29.271-23.53-54.932-54.193-54.932zM99.35 893.804C45.12 893.804 2.51 850.601 2.51 795.68v-820.757c-0.794-53.332 41.716-97.33 95.053-98.125h825.09c54.232 0 96.842 43.203 96.842 98.125V795.68c0.794 53.333-41.716 97.33-95.053 98.124H99.35z m280.78-738.379V343.242h267.44v-187.724H380.13v-0.093z m269.432-53.248v-187.816H378.831V102.177h270.731z m-1.994 481.93V396.29H377.832V584.107h269.736z m318.513-5.93V390.36H697.12V578.176H966.08zM324.408 391.057H55.446V578.875h268.962v-187.817z m-270.96-47.816h286.42v-200.009H53.449V343.242z m643.672 0h269.736v-187.817H697.12V343.242zM114.625 842.172h796.05c31.884 0 56.181-24.999 56.181-57.683v-157.776H58.443V784.489c0 32.684 24.298 57.684 56.182 57.684zM52.257-30.816V102.177h269.821v-188.416H106.932c-30.374 0.28-54.767 25.048-54.675 55.422z m859.324-54.822H697.12V102.177h268.96v-132.57c0-29.44-23.663-55.246-54.5-55.246z"  horiz-adv-x="1024" />

    
    <glyph glyph-name="dashboard" unicode="&#59366;" d="M954.71 328.78c0 59.72-11.7 117.66-34.78 172.22-22.28 52.69-54.18 100-94.81 140.62-40.62 40.62-87.94 72.52-140.62 94.81C629.94 759.5 572 771.2 512.28 771.2s-117.66-11.7-172.22-34.78c-52.69-22.28-100-54.18-140.62-94.81s-72.52-87.93-94.8-140.61c-23.08-54.56-34.78-112.5-34.78-172.22 0-62.34 12.71-122.62 37.79-179.17 24.22-54.61 58.71-103.08 102.52-144.04 0.41-0.38 0.84-0.72 1.26-1.07 4.78-4.56 10.94-6.89 17.13-6.89 6.15 0 12.31 2.27 17.12 6.83l64.76 61.51c9.96 9.45 10.36 25.19 0.9 35.14-9.46 9.96-25.19 10.36-35.14 0.9L228.83 57c-60.08 62.76-97.77 144.17-107.02 230.24l61.9-1.59c0.22-0.01 0.43-0.01 0.65-0.01 13.43 0 24.49 10.71 24.84 24.22 0.35 13.72-10.49 25.14-24.21 25.49l-65.31 1.68c1.87 90.14 34.27 172.9 87.25 238.36l42.53-44.78c4.89-5.15 11.45-7.74 18.03-7.74 6.15 0 12.31 2.27 17.12 6.83 9.96 9.45 10.36 25.19 0.9 35.14l-44.87 47.24c64.05 61.44 148.82 101.43 242.65 108.31v-63.7c0-9.15 7.42-16.57 16.57-16.57s16.57 7.42 16.57 16.57v64.72c91.73-0.96 176.02-33.52 242.47-87.3l-44.78-42.53c-9.96-9.45-10.36-25.19-0.9-35.14 4.89-5.15 11.45-7.74 18.03-7.74 6.15 0 12.31 2.27 17.12 6.83l47.24 44.87c58.69-61.19 97.8-141.29 107.18-230.12l-61.94 1.59c-13.69 0.32-25.14-10.49-25.49-24.21-0.35-13.72 10.49-25.14 24.21-25.49l65.32-1.68c-1.82-87.3-32.46-170.9-87.13-238.49l-42.66 44.91c-9.46 9.96-25.19 10.36-35.14 0.9-9.96-9.45-10.36-25.19-0.9-35.14l61.51-64.76c4.89-5.15 11.45-7.74 18.03-7.74 6.15 0 12.31 2.27 17.12 6.83 0.84 0.8 1.58 1.65 2.28 2.53 0.64 0.57 1.26 1.18 1.85 1.83 74.06 81.56 114.86 187.17 114.86 297.42z m-451.3-155.17c98.6 0 7.9 296.37 7.9 296.37s-111.96-296.37-7.9-296.37z"  horiz-adv-x="1024" />

    
    <glyph glyph-name="monitor" unicode="&#59367;" d="M989.934 418.902C980.4 677.736 772.664 885.464 513.819 894.997V896h-36.701v-1.003C218.2 885.535 10.393 677.808 0.86 418.902H0v-36.7h0.86c9.533-258.978 217.34-466.777 476.258-476.31v-0.788h17.561c0.287 0 0.502-0.072 0.788-0.072 0.215 0 0.43 0.072 0.645 0.072h17.705v0.788c258.845 9.605 466.652 217.404 476.114 476.31h1.005v36.7h-1.002z m-512.816-477.6c-239.06 9.532-431.385 201.848-440.848 440.9h141.573c9.176-161.28 138.06-290.086 299.275-299.262V-58.7z m0 176.975c-141.429 9.176-254.76 122.501-263.863 263.925h142.433c8.315-63.437 58.135-113.253 121.43-121.568v-142.357z m0 177.694c-43.87 7.67-78.35 42.362-86.02 86.231h86.02v-86.23z m0 122.93h-86.02c7.67 43.797 42.22 78.49 86.02 86.16v-86.16z m0 121.426c-63.296-8.244-113.043-58.06-121.43-121.425H213.255c3.326 51.646 20.58 99.542 48.022 139.989 11.574-7.631 25.424-12.088 40.307-12.088 40.5 0 73.403 32.902 73.403 73.4a72.976 72.976 0 0 1-7.554 32.406c33.31 16.97 70.41 27.545 109.685 30.073v-142.355z m0 177.694c-48.091-2.738-93.295-16.119-133.305-37.821-11.95 8.432-26.512 13.404-42.23 13.404-40.5 0-73.403-32.9-73.403-73.4 0-12.45 3.12-24.176 8.604-34.455-34.062-47.483-55.379-104.75-58.94-166.846H36.27C45.732 657.81 238.13 850.126 477.118 859.661v-141.64z m36.701-35.339c123.542-8.018 225.617-95.535 255.51-211.828-24.512-7.308-43.681-27.08-50.111-51.953H635.18c-8.317 63.293-58.136 113.181-121.36 121.425V682.682h-0.001z m0-177.621c43.726-7.742 78.278-42.434 85.948-86.16h-85.948v86.16z m0-122.859h85.948c-7.67-43.869-42.15-78.561-85.948-86.23v86.23z m0-121.568c63.224 8.315 113.116 58.131 121.36 121.568h84.018c6.413-24.912 25.602-44.714 50.142-52.027-29.877-116.33-131.994-203.878-255.52-211.896V260.634z m0-319.333V82.94c142.842 8.196 260.264 110.344 291.488 245.722 27.356 5.701 49.156 26.65 56.079 53.54h93.138c-9.391-239.052-201.716-431.368-440.705-440.9z m347.545 477.6c-6.942 26.85-28.72 47.766-56.045 53.465-31.205 135.354-148.64 237.521-291.5 245.655V859.658c238.918-9.533 431.242-201.849 440.705-440.757h-93.16z"  horiz-adv-x="1024" />

    
    <glyph glyph-name="setting" unicode="&#59368;" d="M511.668 554.146c-93.638 0-169.818-76.176-169.818-169.81 0-93.626 76.18-169.798 169.818-169.798 93.627 0 169.799 76.172 169.799 169.799-0.001 93.632-76.172 169.81-169.799 169.81z m0-298.675c-71.068 0-128.886 57.808-128.886 128.866 0 71.063 57.818 128.877 128.886 128.877 71.057 0 128.866-57.814 128.866-128.877 0-71.057-57.81-128.866-128.866-128.866z m447.693 49.381V485.33l-130.207 26.938a342.188 342.188 0 0 1-9.529 21.437l71.725 109.14-127.606 127.616-117.12-71.571a342.086 342.086 0 0 1-24.086 9.282L596.904 832.056H416.42l-31.306-129.678a343.006 343.006 0 0 1-21.412-9.396L253.692 765.28 126.086 637.67l71.56-117.109a342.074 342.074 0 0 1-9.852-25.435l-123.84-25.619v-180.477l129.692-31.306a342.58 342.58 0 0 1 11.157-25.031l-67.405-104.162L264.25-0.281l112.73 69.958a342.185 342.185 0 0 1 19.75-7.745l30.25-125.302h180.466l26.486 128.005c10 3.828 19.838 8.133 29.425 12.878l104.163-67.35 128.88 126.845-70.026 112.767a341.625 341.625 0 0 1 9.661 25.311l123.327 29.766z m-115.002-161.63l-82.169-80.87-96.763 62.565-10.666-5.77a300.501 300.501 0 0 0-45.205-19.82l-11.03-3.789-24.41-117.975h-114.91l-28.042 116.15-10.981 3.496a300.206 300.206 0 0 0-36.082 14.126l-10.045 4.701-103.594-64.287-80.86 82.11 62.607 96.75-5.768 10.67a300.637 300.637 0 0 0-18.248 40.759l-3.74 10.36-119.566 28.862V436.177l114.8 23.748 3.522 11.658a300.074 300.074 0 0 0 16.05 41.634l4.737 9.998-66.18 108.301 81.251 81.252 102.1-67.098 10.677 5.603a300.47 300.47 0 0 0 37.577 16.556l10.365 3.74 28.862 119.555h114.927l23.76-114.836 11.653-3.522a300.128 300.128 0 0 0 40.413-15.494l9.967-4.674 108.22 66.133 81.25-81.258-66.597-101.341 5.686-10.707a300.703 300.703 0 0 0 16.907-37.938l3.906-10.723 119.689-24.762v-114.919l-114.654-27.672-3.364-11.284a300.082 300.082 0 0 0-15.695-41.242l-4.699-10.046 64.342-103.618z"  horiz-adv-x="1024" />

    
    <glyph glyph-name="result" unicode="&#59369;" d="M394.923 171.008c11.946 0 21.845-9.557 21.845-21.845v-1.707c0-5.803-2.39-11.264-6.485-15.36-4.096-4.096-9.558-6.144-15.36-6.144H206.165c-11.946 0-21.845 9.557-21.845 21.504v1.707c0 5.802 2.39 11.264 6.485 15.36 4.096 4.096 9.558 6.485 15.36 6.485h188.758z m11.946 178.859c5.803 0 11.264-2.39 15.702-6.486 4.096-4.096 6.485-9.898 6.485-15.701v-1.707c-0.341-11.946-9.899-21.504-21.845-21.162H218.453c-11.946 0-21.845 9.557-21.845 21.845v1.024c0 5.803 2.39 11.264 6.485 15.36 4.096 4.096 9.558 6.144 15.36 6.144l188.416 0.683z m219.819 179.2c5.803 0 11.264-2.39 15.36-6.144 4.096-4.096 6.485-9.558 6.485-15.36v-1.707c0-5.803-2.389-11.264-6.485-15.36s-9.557-6.485-15.36-6.485H216.064c-11.947 0-21.845 9.557-21.845 21.845v1.707c0 5.802 2.389 11.264 6.485 15.36s9.557 6.485 15.36 6.144h410.624z m-43.69-501.419c-1.025 0.341-1.707 0.683-2.39 1.365l0.683-1.706h1.706v0.341z m0 0M700.757 408.917c-98.304 0-186.709-59.05-224.256-149.845-37.546-90.795-16.725-195.243 52.566-264.533 69.29-69.291 173.738-90.112 264.533-52.566 90.795 37.547 149.845 126.294 149.845 224.256 0 133.803-108.544 242.688-242.688 242.688z m118.784-203.776L679.936 64.853c-2.39-2.389-5.461-4.096-8.533-4.778-6.827-2.39-14.336-0.342-19.115 4.778L578.56 138.24c-6.144 7.168-5.803 18.09 0.683 24.576 6.826 6.827 17.408 7.168 24.576 0.683l61.44-61.44L793.6 230.4c7.168 7.168 18.432 7.168 25.6 0 7.51-6.827 7.51-18.432 0.341-25.259zM303.787 674.133h30.037c7.85 0 15.701 3.072 21.163 8.875 5.802 5.803 8.874 13.312 8.874 21.163V824.32c0 16.725-13.312 30.037-30.037 30.037h-30.037c-8.192 0-15.702-3.072-21.504-8.533-5.803-5.803-8.875-13.312-8.875-21.504v-120.15c0-7.85 3.072-15.7 8.875-21.162 5.802-5.803 13.312-8.875 21.162-8.875h0.342z m330.41 0h30.038c7.85 0 15.701 3.072 21.162 8.875 5.462 5.803 8.875 13.312 8.875 21.163V824.32c0 7.85-3.072 15.701-8.875 21.163-5.461 5.802-13.312 8.874-21.162 8.874h-30.038c-7.85 0-15.701-3.072-21.162-8.874-5.462-5.803-8.875-13.312-8.875-21.163v-120.15c0-7.85 3.072-15.7 8.875-21.162 5.461-5.803 13.312-8.875 21.162-8.875zM276.48 806.57v-45.397l81.92-0.341V806.571h-81.92z m331.093 0v-46.08h82.262V806.57h-82.262z m-472.746 0c-15.019 0.342-29.355-5.802-39.595-16.725-10.923-10.922-16.725-25.6-16.725-40.96v-735.914c-0.342-15.019 5.802-29.696 16.384-40.278 10.24-10.922 24.576-16.725 39.594-16.384h240.299c11.947 0 21.845 9.899 21.845 21.846 0 11.946-9.898 21.845-21.845 21.845l-250.539 2.048V761.856h94.208a22.87 22.87 0 0 1 0 45.739l-83.626-1.024z m732.501-16.725c-9.899 10.923-24.235 17.067-38.912 16.726h-80.213a22.87 22.87 0 0 1 0-45.739h90.453v-258.048c0-11.947 9.899-21.845 21.845-21.845 11.947 0 21.846 9.898 21.846 21.845V748.885c0.682 15.019-4.779 30.038-15.019 40.96z m-473.088-6.144c0-12.629 10.24-22.869 22.87-22.869h132.095c6.144 0 11.947 2.39 16.043 6.827 4.437 4.437 6.827 10.24 6.827 16.042 0 12.63-10.24 22.87-22.87 22.87H417.11c-12.629 0-22.869-10.24-22.869-22.87z m0 0"  horiz-adv-x="1024" />

    
    <glyph glyph-name="form" unicode="&#59370;" d="M219.274-41.929c-55.89 0-101.359 45.502-101.359 101.427V644.121c0 57.479 46.708 106.035 101.996 106.035h396.04v-56.951H219.91c-23.74 0-45.359-23.392-45.359-49.084v-584.623c0-24.686 20.064-44.77 44.722-44.77h584.26c25.918 0 49.515 21.604 49.515 45.332V456.1h56.958v-396.04c0-54.329-49.755-101.989-106.473-101.989h-584.26z m17.556 90.656c-9.038 0-17.174 4.225-22.316 11.593-6.02 8.628-7.114 19.995-3 31.177l105.543 213.708c1.945 10.565 6.485 19.543 13.23 26.288l378.709 378.955c9.95 9.95 23.172 15.428 37.237 15.428 14.052 0 27.281-5.478 37.245-15.421l86.067-86.144c9.943-9.943 15.42-23.18 15.42-37.258s-5.477-27.308-15.427-37.244L490.823 170.834c-6.888-6.902-15.804-11.34-27.26-13.572L251.396 52.165c-4.91-2.274-9.82-3.438-14.566-3.438z m28.453 68.798c-1.41-2.87-1.267-6.06 0.328-8.642 1.541-2.493 4.24-3.985 7.21-3.985 1.487 0 3.02 0.363 4.555 1.081l126.928 76.892-61.958 62.047-77.063-127.393z m107.864 176.703l80.432-80.507 269.79 269.961-81.015 79.932-269.207-269.386z m373.079 364.883c-5.43 0-10.546-2.123-14.394-5.985l-47.646-47.631 79.323-81.679 48.769 48.823c7.937 7.937 7.937 20.872-0.007 28.836l-51.617 51.651c-3.869 3.862-8.991 5.985-14.428 5.985zM534.497 105.097v56.952h252.986v-56.952H534.497z m122.518 98.017v56.952h130.468v-56.952H657.015zM240.44 448.156v56.959h130.467v-56.959H240.44z m0 98.024v56.952h252.985v-56.952H240.44z"  horiz-adv-x="1024" />

    
    <glyph glyph-name="zone" unicode="&#59371;" d="M153.018 35.56A502.387 502.387 0 0 0 8 389.333c0 278.342 225.658 504 504 504s504-225.658 504-504c0-137.861-55.34-262.752-145.018-353.775A502.454 502.454 0 0 0 512-114.666a502.454 502.454 0 0 0-358.982 150.225z m29.601 66.863a378.84 378.84 0 0 0 229.354 179.02 201.6 201.6 0 1 0 200.054 0c98.146-26.88 180.365-92.298 229.354-179.02A435.12 435.12 0 0 1 948.8 389.333c0 241.248-195.552 436.8-436.8 436.8S75.2 630.581 75.2 389.333a435.12 435.12 0 0 1 107.42-286.91z"  horiz-adv-x="1024" />

    
    <glyph glyph-name="notice" unicode="&#59372;" d="M957.44 92.16L870.4 225.28V501.76c0 56.32-25.6 117.76-66.56 168.96-46.08 51.2-107.52 97.28-174.08 117.76 0 0-5.12 0-15.36 5.12V803.84C614.4 855.04 568.32 896 512 896S409.6 855.04 409.6 803.84v-10.24h-15.36c-66.56-20.48-133.12-66.56-174.08-117.76-46.08-51.2-66.56-112.64-66.56-174.08v-276.48L61.44 81.92c-10.24-15.36-10.24-35.84 0-56.32 10.24-15.36 30.72-25.6 56.32-25.6h225.28c10.24-71.68 81.92-128 168.96-128s158.72 56.32 174.08 133.12h225.28c35.84 0 61.44 25.6 61.44 56.32 0 10.24-5.12 20.48-15.36 30.72zM512 849.92c25.6 0 46.08-20.48 51.2-40.96h-97.28c0 20.48 20.48 40.96 46.08 40.96z m0-931.84c-56.32 0-107.52 35.84-117.76 81.92h235.52c-10.24-46.08-61.44-81.92-117.76-81.92zM911.36 51.2H112.64c-5.12 0-5.12 0-5.12 5.12v10.24l97.28 148.48V501.76c0 102.4 92.16 209.92 209.92 245.76 5.12 0 35.84 10.24 66.56 15.36h61.44c30.72-5.12 66.56-15.36 71.68-15.36 117.76-40.96 204.8-143.36 204.8-245.76v-281.6c0-5.12 0-10.24 5.12-10.24l92.16-138.24 5.12-5.12v-5.12c0-10.24-5.12-10.24-10.24-10.24z"  horiz-adv-x="1024" />

    


  </font>
</defs>
</svg>
