<?xml version="1.0" standalone="no"?><!DOCTYPE svg PUBLIC "-//W3C//DTD SVG 1.1//EN" "http://www.w3.org/Graphics/SVG/1.1/DTD/svg11.dtd"><svg class="icon" width="200px" height="200.00px" viewBox="0 0 1024 1024" version="1.1" xmlns="http://www.w3.org/2000/svg"><path fill="#2c2c2c" d="M954.71 567.22c0-59.72-11.7-117.66-34.78-172.22-22.28-52.69-54.18-100-94.81-140.62-40.62-40.62-87.94-72.52-140.62-94.81C629.94 136.5 572 124.8 512.28 124.8s-117.66 11.7-172.22 34.78c-52.69 22.28-100 54.18-140.62 94.81s-72.52 87.93-94.8 140.61c-23.08 54.56-34.78 112.5-34.78 172.22 0 62.34 12.71 122.62 37.79 179.17 24.22 54.61 58.71 103.08 102.52 144.04 0.41 0.38 0.84 0.72 1.26 1.07 4.78 4.56 10.94 6.89 17.13 6.89 6.15 0 12.31-2.27 17.12-6.83l64.76-61.51c9.96-9.45 10.36-25.19 0.9-35.14-9.46-9.96-25.19-10.36-35.14-0.9L228.83 839c-60.08-62.76-97.77-144.17-107.02-230.24l61.9 1.59c0.22 0.01 0.43 0.01 0.65 0.01 13.43 0 24.49-10.71 24.84-24.22 0.35-13.72-10.49-25.14-24.21-25.49l-65.31-1.68c1.87-90.14 34.27-172.9 87.25-238.36l42.53 44.78c4.89 5.15 11.45 7.74 18.03 7.74 6.15 0 12.31-2.27 17.12-6.83 9.96-9.45 10.36-25.19 0.9-35.14l-44.87-47.24c64.05-61.44 148.82-101.43 242.65-108.31v63.7c0 9.15 7.42 16.57 16.57 16.57s16.57-7.42 16.57-16.57v-64.72c91.73 0.96 176.02 33.52 242.47 87.3l-44.78 42.53c-9.96 9.45-10.36 25.19-0.9 35.14 4.89 5.15 11.45 7.74 18.03 7.74 6.15 0 12.31-2.27 17.12-6.83l47.24-44.87c58.69 61.19 97.8 141.29 107.18 230.12l-61.94-1.59c-13.69-0.32-25.14 10.49-25.49 24.21-0.35 13.72 10.49 25.14 24.21 25.49l65.32 1.68c-1.82 87.3-32.46 170.9-87.13 238.49l-42.66-44.91c-9.46-9.96-25.19-10.36-35.14-0.9-9.96 9.45-10.36 25.19-0.9 35.14l61.51 64.76c4.89 5.15 11.45 7.74 18.03 7.74 6.15 0 12.31-2.27 17.12-6.83 0.84-0.8 1.58-1.65 2.28-2.53 0.64-0.57 1.26-1.18 1.85-1.83 74.06-81.56 114.86-187.17 114.86-297.42zM503.41 722.39c98.6 0 7.9-296.37 7.9-296.37s-111.96 296.37-7.9 296.37z" /></svg>