<?xml version="1.0" standalone="no"?><!DOCTYPE svg PUBLIC "-//W3C//DTD SVG 1.1//EN" "http://www.w3.org/Graphics/SVG/1.1/DTD/svg11.dtd"><svg class="icon" width="200px" height="188.93px" viewBox="0 0 1084 1024" version="1.1" xmlns="http://www.w3.org/2000/svg"><path fill="#2c2c2c" d="M1024 542.117647V120.470588c0-66.258824-54.211765-120.470588-120.470588-120.470588H120.470588C54.211765 0 0 54.211765 0 120.470588v783.058824c0 66.258824 54.211765 120.470588 120.470588 120.470588h542.117647v-60.235294H120.470588c-36.141176 0-60.235294-24.094118-60.235294-60.235294V120.470588c0-36.141176 24.094118-60.235294 60.235294-60.235294h783.058824c36.141176 0 60.235294 24.094118 60.235294 60.235294v421.647059h60.235294zM901.963294 886.663529l42.646588-42.586353 127.698824 127.698824-42.526118 42.646588z"  /><path fill="#2c2c2c" d="M180.705882 180.705882h487.905883v60.235294H180.705882zM180.705882 361.411765h301.176471v60.235294H180.705882zM180.705882 542.117647h301.176471v60.235294H180.705882zM783.058824 933.647059c-114.447059 0-210.823529-96.376471-210.82353-210.82353s96.376471-210.823529 210.82353-210.823529 210.823529 96.376471 210.823529 210.823529-96.376471 210.823529-210.823529 210.82353z m0-361.411765c-84.329412 0-150.588235 66.258824-150.588236 150.588235s66.258824 150.588235 150.588236 150.588236 150.588235-66.258824 150.588235-150.588236-66.258824-150.588235-150.588235-150.588235z"  /></svg>