<?xml version="1.0" standalone="no"?><!DOCTYPE svg PUBLIC "-//W3C//DTD SVG 1.1//EN" "http://www.w3.org/Graphics/SVG/1.1/DTD/svg11.dtd"><svg t="1574165983090" class="icon" viewBox="0 0 1126 1024" version="1.1" xmlns="http://www.w3.org/2000/svg" p-id="6435" xmlns:xlink="http://www.w3.org/1999/xlink" width="219.921875" height="200"><defs><style type="text/css"></style></defs><path d="M583.68 235.52c215.04 0 419.84 158.72 419.84 256s-204.8 256-419.84 256-419.84-158.72-419.84-256 204.8-256 419.84-256m0-56.32C327.68 179.2 102.4 358.4 102.4 496.64s225.28 312.32 481.28 312.32 481.28-174.08 481.28-312.32c0-138.24-225.28-317.44-481.28-317.44" p-id="6436"></path><path d="M573.44 384c66.56 0 117.76 51.2 117.76 112.64 0 61.44-51.2 112.64-112.64 112.64h-10.24c-61.44 0-112.64-51.2-112.64-112.64 0-61.44 51.2-112.64 117.76-112.64l-5.12-5.12 5.12 5.12z m0 286.72c102.4 0 189.44-81.92 189.44-179.2s-81.92-179.2-184.32-179.2h-5.12c-102.4 0-184.32 81.92-184.32 179.2 0 102.4 81.92 179.2 184.32 179.2z" p-id="6437"></path></svg>