<?xml version="1.0" standalone="no"?><!DOCTYPE svg PUBLIC "-//W3C//DTD SVG 1.1//EN" "http://www.w3.org/Graphics/SVG/1.1/DTD/svg11.dtd"><svg class="icon" width="200px" height="200.00px" viewBox="0 0 1024 1024" version="1.1" xmlns="http://www.w3.org/2000/svg"><path fill="#2c2c2c" d="M874.00991357 61.99999912"  /><path fill="#2c2c2c" d="M219.27392422 937.9286624c-55.89032519 0-101.35868906-45.50214112-101.35868906-101.4270873L117.91523604 251.87865488c0-57.47869951 46.7079873-106.03514531 101.99538984-106.03514531l396.0396211 0 0 56.951775L219.910625 202.79528369c-23.74032041 0-45.3585876 23.39157128-45.3585876 49.08337032l0 584.62292021c0 24.6860833 20.06367012 44.77001924 44.72188682 44.77001924l584.25981504 0c25.91810683 0 49.51487461-21.60391113 49.51487461-45.33156563L853.04861386 439.90040761l56.95853028 1e-8 0 396.03962109c0 54.32897373-49.75469297 101.98863369-106.47340488 101.98863369L219.27392422 937.9286624zM236.83047998 847.27313106c-9.03878438 0-17.17402852-4.22468613-22.31661094-11.59318741-6.01910068-8.62839141-7.11432773-19.99527099-2.99941699-31.1772208l105.54284267-213.70764111c1.94472334-10.56551484 6.48438223-19.54350088 13.22969327-26.28796817L708.99551651 185.5520123c9.94992539-9.94992539 23.17201875-15.42774638 37.23769862-15.42774638 14.05132471 0 27.28101797 5.47782099 37.24445391 15.42099111L869.54456533 271.68899521c9.94317011 9.94317011 15.42099112 23.17961865 15.42099112 37.25796534s-5.47782099 27.30803994-15.42774639 37.2444539L490.82337002 725.16593867c-6.88886455 6.9023751-15.80436211 11.33985761-27.26075215 13.57168799L251.39606328 843.8354545C246.48569932 846.10866113 241.57617998 847.27313106 236.83047998 847.27313106zM265.28272315 778.47483974c-1.41019893 2.8693749-1.26664541 6.06047783 0.3284833 8.64190196 1.54108565 2.49275917 4.23904131 3.9857124 7.21059258 3.98571241 1.48619795 0 3.01968369-0.36310518 4.55401406-1.08171563l126.92804589-76.89215742-61.95755917-62.04622413L265.28272315 778.47483974zM373.14690576 601.77183418l80.43201036 80.50716475 269.78965224-269.96107237-81.01466807-79.93210781L373.14690576 601.77183418zM746.22561523 236.88916807c-5.4305332 0-10.54524903 2.12289873-14.39331855 5.98447969l-47.6461503 47.63179423 79.32327364 81.67838994 48.76839844-48.82328613c7.93680292-7.93680292 7.93680292-20.87179013-0.00675528-28.83561504l-51.61750664-51.65128388C756.78521943 239.01206592 751.66290372 236.88916807 746.22561523 236.88916807zM534.49731934 790.90316914l-1e-8-56.951775L787.48280352 733.95139414l0 56.951775L534.49731934 790.90316914zM657.01490469 692.8858918l0-56.951775L787.48280352 635.9341168l0 56.951775L657.01490469 692.8858918zM240.43957666 447.84396582l0-56.95853027 130.46789883 0 0 56.95853028L240.43957666 447.84396582zM240.43957666 349.8199332l0-56.951775 252.98548418 0 0 56.951775L240.43957666 349.8199332z"  /></svg>