<?xml version="1.0" standalone="no"?><!DOCTYPE svg PUBLIC "-//W3C//DTD SVG 1.1//EN" "http://www.w3.org/Graphics/SVG/1.1/DTD/svg11.dtd"><svg class="icon" width="200px" height="200.00px" viewBox="0 0 1024 1024" version="1.1" xmlns="http://www.w3.org/2000/svg"><path fill="#2c2c2c" d="M97.922867 0.197807C43.372139 0.197807 0.510996 43.655368 0.510996 98.901417v825.593756c-0.79922 53.64761 41.962021 97.90439 95.613627 98.703609h829.953499c54.550728 0 97.411871-43.457561 97.411871-98.703609v-825.593756c0.79922-53.64761-41.962021-97.90439-95.613627-98.70361H97.922867z m269.918408 754.06361v-201.50322h288.418341v201.403317c0 0.099902-288.418341 0.099902-288.418341 0.099903z m288.318439 39.561365v200.017671H367.841275V793.822782h288.318439z m0-481.929365v200.01767H367.841275V311.893417h288.318439z m327.380293 0v200.008679H697.119714V311.893417H983.540007zM326.881275 511.902096H40.460982V311.893417h286.420293v200.008679zM54.447324 552.758197h269.736585v187.816585H54.447324v-187.816585z m642.67239 0H983.540007v200.008679H697.119714V552.758197zM108.107921 53.529725h802.790025c32.154599 0 56.65767 24.890693 56.65767 57.431914v157.090591H51.450251V110.961639c0-32.541221 24.503071-57.431914 56.65767-57.431914zM57.444397 932.5573V799.752991h269.436878v188.148262H112.04108c-30.33038-0.279727-54.689592-25.011575-54.596683-55.343953z m852.922068 54.646634H697.119714V800.45031H964.558543v131.821269c0 29.271415-23.529022 54.932355-54.192078 54.932355zM99.350473 2.195856c-54.23104 0-96.841428 43.20281-96.841428 98.125174v820.75648c-0.794224 53.332917 41.716261 97.33095 95.053174 98.125175h825.090248c54.23104 0 96.841428-43.20281 96.841428-98.125175V100.32103c0.794224-53.332917-41.716261-97.33095-95.053174-98.124175H99.350473z m280.779801 738.378926v-187.816585h267.438829v187.723676H380.129275v0.092909z m269.431883 53.248v187.816586H378.830543v-187.816586h270.731614z m-1.994053-481.929365v187.816585h-269.736585v-187.816585h269.736585z m318.512952 5.930208v187.816586H697.119714v-187.816586h268.961342z m-641.673365 187.118268H55.446348v-187.816586h268.961343v187.816586zM53.448299 552.758197h286.420293v200.008679H53.448299V552.758197z m643.671415 0h269.736585v187.816585h-269.736585v-187.816585zM114.624557 53.827434h796.050607c31.883863 0 56.181136 24.999586 56.181135 57.683668v157.775922H58.443421v-157.775922c0-32.684082 24.297272-57.683668 56.181136-57.683668zM52.257462 926.816905V793.822782h269.820504v188.416H106.932069c-30.374338-0.279727-54.767516-25.04754-54.674607-55.421877z m859.323817 54.822463H697.119714v-187.816586h268.960343v132.570537c0 29.44025-23.662892 55.246049-54.499777 55.246049z" /></svg>