<?xml version="1.0" standalone="no"?><!DOCTYPE svg PUBLIC "-//W3C//DTD SVG 1.1//EN" "http://www.w3.org/Graphics/SVG/1.1/DTD/svg11.dtd"><svg class="icon" width="200px" height="200.00px" viewBox="0 0 1024 1024" version="1.1" xmlns="http://www.w3.org/2000/svg"><path fill="#2c2c2c" d="M989.933645 477.098121C980.400068 218.263612 772.664145 10.536197 513.819029 1.003014L513.819029 0 477.11767 0 477.11767 1.003014C218.200908 10.464554 10.393335 218.191968 0.859761 477.098121L0 477.098121 0 494.803255 0 495.519693 0 496.23613 0 513.797978 0.859761 513.797978C10.393335 772.775774 218.200908 980.574831 477.11767 990.108015L477.11767 990.896098 494.6791 990.896098C494.965687 990.896098 495.180625 990.967744 495.467213 990.967744 495.682155 990.967744 495.897092 990.896098 496.112034 990.896098L513.816755 990.896098 513.816755 990.108015C772.661871 980.503189 980.469444 772.704132 989.931371 513.797978L990.935561 513.797978 990.935561 477.098121 989.933645 477.098121 989.933645 477.098121ZM477.11767 954.698889C238.057307 945.165705 45.733405 752.849681 36.270341 513.797978L177.843287 513.797978C187.018627 675.077419 315.903265 803.883998 477.11767 813.0601L477.11767 954.698889 477.11767 954.698889ZM477.11767 777.722615C335.689155 768.546513 222.358697 655.221833 213.255004 513.797978L355.687712 513.797978C364.00329 577.234641 413.822838 627.051012 477.11767 635.366251L477.11767 777.722615 477.11767 777.722615ZM477.11767 600.028762C433.248218 592.359458 398.76791 557.666769 391.09829 513.797978L477.11767 513.797978 477.11767 600.028762 477.11767 600.028762ZM477.11767 477.098121 391.09829 477.098121C398.76791 433.30211 433.318729 398.608284 477.11767 390.938979L477.11767 477.098121 477.11767 477.098121ZM477.11767 355.673138C413.8217 363.916732 364.074936 413.733101 355.687712 477.098121L213.255004 477.098121C216.581462 425.45199 233.834695 377.556359 261.276558 337.109415 272.851497 344.740056 286.700938 349.196759 301.58414 349.196759 342.083917 349.196759 374.986859 316.295166 374.986859 275.797049 374.986859 264.165724 372.262006 253.168958 367.433239 243.391277 400.743316 226.421915 437.843853 215.845915 477.11767 213.317911L477.11767 355.673138 477.11767 355.673138ZM477.11767 177.979288C429.026743 180.716539 383.823297 194.098021 343.812538 215.800428 331.862307 207.368058 317.300946 202.396201 301.583003 202.396201 261.082089 202.396201 228.180284 235.296658 228.180284 275.795912 228.180284 288.246024 231.299763 299.971737 236.783587 310.250926 202.721787 357.733752 181.405157 415.001084 177.843288 477.096986L36.270341 477.096986C45.732268 238.189705 238.128955 45.873682 477.11767 36.339362L477.11767 177.979288 477.11767 177.979288ZM513.819029 213.31791C637.360862 221.336337 739.435947 308.853301 769.329724 425.146083 744.817421 432.453756 725.647919 452.22519 719.217903 477.09926L635.179614 477.09926C626.862899 413.805882 577.044489 363.917869 513.820164 355.674276L513.820169 213.31791 513.819029 213.31791ZM513.819029 390.938979C557.545186 398.681066 592.097143 433.372617 599.766763 477.098121L513.819029 477.098121 513.819029 390.938979 513.819029 390.938979ZM513.819029 513.797978 599.766763 513.797978C592.097143 557.666769 557.616832 592.359458 513.819029 600.028762L513.819029 513.797978 513.819029 513.797978ZM513.819029 635.366251C577.043354 627.051012 626.934545 577.234641 635.178479 513.797978L719.197431 513.797978C725.610389 538.709572 744.799223 558.51171 769.338825 565.825071 739.462106 682.154244 637.344943 769.703049 513.819029 777.721476L513.819029 635.366251 513.819029 635.366251ZM513.819029 954.698889 513.819029 813.0601C656.661146 804.864269 774.083435 702.716032 805.306654 567.337553 832.663223 561.636749 854.463185 540.687172 861.38563 513.797978L954.524203 513.797978C945.132783 752.849681 752.807744 945.165705 513.819029 954.698889L513.819029 954.698889ZM861.364023 477.098121C854.422246 450.24873 832.643891 429.333269 805.319168 423.6336 774.114142 288.280139 656.679343 186.112572 513.819029 177.979287L513.819029 36.341636C752.737233 45.874819 945.061137 238.190841 954.524203 477.09926L861.364023 477.09926 861.364023 477.098121Z" /></svg>