<?xml version="1.0" standalone="no"?><!DOCTYPE svg PUBLIC "-//W3C//DTD SVG 1.1//EN" "http://www.w3.org/Graphics/SVG/1.1/DTD/svg11.dtd"><svg class="icon" width="200px" height="200.00px" viewBox="0 0 1024 1024" version="1.1" xmlns="http://www.w3.org/2000/svg"><path fill="#2c2c2c" d="M957.44 803.84L870.4 670.72V394.24c0-56.32-25.6-117.76-66.56-168.96-46.08-51.2-107.52-97.28-174.08-117.76 0 0-5.12 0-15.36-5.12V92.16C614.4 40.96 568.32 0 512 0S409.6 40.96 409.6 92.16v10.24h-15.36c-66.56 20.48-133.12 66.56-174.08 117.76-46.08 51.2-66.56 112.64-66.56 174.08v276.48L61.44 814.08c-10.24 15.36-10.24 35.84 0 56.32 10.24 15.36 30.72 25.6 56.32 25.6h225.28c10.24 71.68 81.92 128 168.96 128s158.72-56.32 174.08-133.12h225.28c35.84 0 61.44-25.6 61.44-56.32 0-10.24-5.12-20.48-15.36-30.72zM512 46.08c25.6 0 46.08 20.48 51.2 40.96h-97.28c0-20.48 20.48-40.96 46.08-40.96z m0 931.84c-56.32 0-107.52-35.84-117.76-81.92h235.52c-10.24 46.08-61.44 81.92-117.76 81.92zM911.36 844.8H112.64c-5.12 0-5.12 0-5.12-5.12v-10.24l97.28-148.48V394.24c0-102.4 92.16-209.92 209.92-245.76 5.12 0 35.84-10.24 66.56-15.36h61.44c30.72 5.12 66.56 15.36 71.68 15.36 117.76 40.96 204.8 143.36 204.8 245.76v281.6c0 5.12 0 10.24 5.12 10.24l92.16 138.24 5.12 5.12v5.12c0 10.24-5.12 10.24-10.24 10.24z" /></svg>