<?xml version="1.0" standalone="no"?><!DOCTYPE svg PUBLIC "-//W3C//DTD SVG 1.1//EN" "http://www.w3.org/Graphics/SVG/1.1/DTD/svg11.dtd"><svg class="icon" width="200px" height="200.00px" viewBox="0 0 1024 1024" version="1.1" xmlns="http://www.w3.org/2000/svg"><path fill="#2c2c2c" d="M524.857 473.429c-64.286 0-128.571 64.285-128.571 128.571 0 36 23.143 56.571 51.428 77.143V782c0 15.429 36 25.714 51.429 25.714h51.428C566 807.714 602 797.43 602 782V679.143c28.286-20.572 51.429-38.572 51.429-77.143 0-64.286-64.286-128.571-128.572-128.571z m51.429 180C566 658.57 550.57 666.286 550.57 679.143v77.143h-51.428v-77.143c0-12.857-15.429-20.572-25.714-25.714-23.143-12.858-25.715-25.715-25.715-51.429 0-38.571 38.572-77.143 77.143-77.143S602 563.43 602 602c0 25.714-2.571 38.571-25.714 51.429z m180-308.572V293.43C753.714 136.57 656 62 499.143 62s-231.429 74.571-231.429 231.429v51.428c-72 5.143-128.571 54-128.571 128.572v360C139.143 910.57 190.57 962 267.714 962h488.572c77.143 0 128.571-51.429 128.571-128.571v-360c0-74.572-54-126-128.571-128.572zM319.143 293.43c0-126 54-180 180-180s203.143 54 205.714 180v51.428H319.143V293.43z m514.286 540c0 46.285-30.858 77.142-77.143 77.142H267.714c-46.285 0-77.143-30.857-77.143-77.142v-360c0-46.286 30.858-77.143 77.143-77.143h488.572c46.285 0 77.143 30.857 77.143 77.143v360z" /></svg>