<?xml version="1.0" standalone="no"?><!DOCTYPE svg PUBLIC "-//W3C//DTD SVG 1.1//EN" "http://www.w3.org/Graphics/SVG/1.1/DTD/svg11.dtd"><svg class="icon" width="200px" height="200.00px" viewBox="0 0 1024 1024" version="1.1" xmlns="http://www.w3.org/2000/svg"><path d="M394.922667 724.992c11.946667 0 21.845333 9.557333 21.845333 21.845333v1.706667c0 5.802667-2.389333 11.264-6.485333 15.36-4.096 4.096-9.557333 6.144-15.36 6.144H206.165333c-11.946667 0-21.845333-9.557333-21.845333-21.504v-1.706667c0-5.802667 2.389333-11.264 6.485333-15.36 4.096-4.096 9.557333-6.485333 15.36-6.485333h188.757334z m11.946666-178.858667c5.802667 0 11.264 2.389333 15.701334 6.485334 4.096 4.096 6.485333 9.898667 6.485333 15.701333v1.706667c-0.341333 11.946667-9.898667 21.504-21.845333 21.162666H218.453333c-11.946667 0-21.845333-9.557333-21.845333-21.845333v-1.024c0-5.802667 2.389333-11.264 6.485333-15.36 4.096-4.096 9.557333-6.144 15.36-6.144l188.416-0.682667z m219.818667-179.2c5.802667 0 11.264 2.389333 15.36 6.144 4.096 4.096 6.485333 9.557333 6.485333 15.36v1.706667c0 5.802667-2.389333 11.264-6.485333 15.36-4.096 4.096-9.557333 6.485333-15.36 6.485333H216.064c-11.946667 0-21.845333-9.557333-21.845333-21.845333v-1.706667c0-5.802667 2.389333-11.264 6.485333-15.36 4.096-4.096 9.557333-6.485333 15.36-6.144h410.624z m-43.690667 501.418667c-1.024-0.341333-1.706667-0.682667-2.389333-1.365333l0.682667 1.706666h1.706666v-0.341333z m0 0" fill="#818181" /><path d="M700.757333 487.082667c-98.304 0-186.709333 59.050667-224.256 149.845333-37.546667 90.794667-16.725333 195.242667 52.565334 264.533333 69.290667 69.290667 173.738667 90.112 264.533333 52.565334 90.794667-37.546667 149.845333-126.293333 149.845333-224.256 0-133.802667-108.544-242.688-242.688-242.688z m118.784 203.776l-139.605333 140.288c-2.389333 2.389333-5.461333 4.096-8.533333 4.778666-6.826667 2.389333-14.336 0.341333-19.114667-4.778666L578.56 757.76c-6.144-7.168-5.802667-18.090667 0.682667-24.576 6.826667-6.826667 17.408-7.168 24.576-0.682667l61.44 61.44 128.341333-128.341333c7.168-7.168 18.432-7.168 25.6 0 7.509333 6.826667 7.509333 18.432 0.341333 25.258667z" fill="#68A490" /><path d="M303.786667 221.866667h30.037333c7.850667 0 15.701333-3.072 21.162667-8.874667 5.802667-5.802667 8.874667-13.312 8.874666-21.162667V71.68c0-16.725333-13.312-30.037333-30.037333-30.037333H303.786667c-8.192 0-15.701333 3.072-21.504 8.533333-5.802667 5.802667-8.874667 13.312-8.874667 21.504v120.149333c0 7.850667 3.072 15.701333 8.874667 21.162667 5.802667 5.802667 13.312 8.874667 21.162666 8.874667h0.341334zM634.197333 221.866667h30.037334c7.850667 0 15.701333-3.072 21.162666-8.874667 5.461333-5.802667 8.874667-13.312 8.874667-21.162667V71.68c0-7.850667-3.072-15.701333-8.874667-21.162667-5.461333-5.802667-13.312-8.874667-21.162666-8.874666h-30.037334c-7.850667 0-15.701333 3.072-21.162666 8.874666-5.461333 5.802667-8.874667 13.312-8.874667 21.162667v120.149333c0 7.850667 3.072 15.701333 8.874667 21.162667 5.461333 5.802667 13.312 8.874667 21.162666 8.874667z" fill="#818181" /><path d="M276.48 89.429333v45.397334l81.92 0.341333V89.429333H276.48z m331.093333 0v46.08h82.261334V89.429333H607.573333z m-472.746666 0c-15.018667-0.341333-29.354667 5.802667-39.594667 16.725334-10.922667 10.922667-16.725333 25.6-16.725333 40.96v735.914666c-0.341333 15.018667 5.802667 29.696 16.384 40.277334 10.24 10.922667 24.576 16.725333 39.594666 16.384h240.298667c11.946667 0 21.845333-9.898667 21.845333-21.845334 0-11.946667-9.898667-21.845333-21.845333-21.845333l-250.538667-2.048V134.144H218.453333a22.869333 22.869333 0 0 0 0-45.738667l-83.626666 1.024z m732.501333 16.725334c-9.898667-10.922667-24.234667-17.066667-38.912-16.725334h-80.213333a22.869333 22.869333 0 0 0 0 45.738667h90.453333v258.048c0 11.946667 9.898667 21.845333 21.845333 21.845333 11.946667 0 21.845333-9.898667 21.845334-21.845333V147.114667c0.682667-15.018667-4.778667-30.037333-15.018667-40.96z m-473.088 6.144c0 12.629333 10.24 22.869333 22.869333 22.869333h132.096c6.144 0 11.946667-2.389333 16.042667-6.826667 4.437333-4.437333 6.826667-10.24 6.826667-16.042666 0-12.629333-10.24-22.869333-22.869334-22.869334h-132.096c-12.629333 0-22.869333 10.24-22.869333 22.869334z m0 0" fill="#818181" /></svg>