<?xml version="1.0" encoding="UTF-8"?>
<svg width="234px" height="204px" viewBox="0 0 234 204" version="1.1" xmlns="http://www.w3.org/2000/svg" xmlns:xlink="http://www.w3.org/1999/xlink">
    <g id="Page-1" stroke="none" stroke-width="1" fill="none" fill-rule="evenodd">
        <g id="logo" fill="#fff">
            <path d="M69.7375573,84.1495044 L69.0567939,82.9421574 C64.2061445,74.5660258 61.6487745,65.0618548 61.6418321,55.3853061 C61.6418321,24.9121866 86.460916,0.118950437 116.972214,0.118950437 C147.00916,0.118950437 171.536489,24.1528863 172.286718,53.9797085 L152.745038,53.9797085 C152.002748,34.9079883 136.241985,19.6268222 116.970229,19.6268222 C97.2300763,19.6268222 81.1755725,35.6672886 81.1755725,55.3833236 C81.1813073,61.6516796 82.8458295,67.8071307 86.000458,73.2258892 L86.4112977,73.987172 L113.181374,120.298542 L114.356336,122.4 L150.12916,184.291895 L138.87374,203.766064 L69.7375573,84.1495044 Z" id="Path"></path>
            <polygon id="Path" points="127.556794 184.18484 142.771756 157.859125 142.734046 157.859125 200.069008 58.6623907 200.01145 58.6623907 211.250992 39.154519 233.89084 39.154519 138.812214 203.655044"></polygon>
            <polygon id="Path" points="106.469008 184.331545 92.3833588 159.968513 91.2044275 157.859125 35.0880916 60.7717784 33.9270229 58.6623907 22.6874809 39.154519 0.0476335878 39.154519 95.2135878 203.807697"></polygon>
            <path d="M125.038168,112.881983 L139.681527,87.5495044 L110.404733,87.5495044 L99.1592366,68.0416327 L170.796183,68.0416327 C169.584082,73.1184504 167.655468,77.9973268 165.068244,82.5317784 L164.363664,83.7708455 L164.405344,83.7926531 L136.303511,132.419592 L125.038168,112.881983 Z" id="Path"></path>
        </g>
    </g>
</svg>
